<svg version="1.1" id="Layer_1" xmlns="http://www.w3.org/2000/svg" xmlns:xlink="http://www.w3.org/1999/xlink" x="0px" y="0px"
	 width="100%" viewBox="0 0 512 512" enable-background="new 0 0 512 512" xml:space="preserve">
<path fill="#114422" opacity="1.000000" stroke="none" 
	d="
M225.000000,1.000000 
	C246.020889,1.000000 267.041779,1.000000 288.629150,1.371590 
	C289.881073,2.137463 290.532867,2.795050 291.256958,2.887823 
	C313.976837,5.798637 335.777161,11.922305 356.916840,20.765171 
	C382.944214,31.652607 406.578247,46.388783 427.471069,65.170746 
	C454.220734,89.217735 475.492584,117.466843 490.331238,150.484451 
	C500.561890,173.248734 507.526184,196.844330 511.064941,221.510605 
	C511.241455,222.740936 512.333984,223.839874 513.000000,225.000000 
	C513.000000,246.020889 513.000000,267.041779 512.628418,288.629150 
	C511.862518,289.881073 511.204956,290.532867 511.112183,291.256989 
	C508.201416,313.976868 502.077637,335.777191 493.234833,356.916840 
	C482.347412,382.944214 467.611084,406.578156 448.829285,427.471130 
	C424.782410,454.220978 396.533051,475.492523 363.515503,490.331268 
	C340.751251,500.561890 317.155670,507.526276 292.489410,511.065033 
	C291.259064,511.241516 290.160126,512.333984 289.000000,513.000000 
	C267.979095,513.000000 246.958206,513.000000 225.370880,512.628418 
	C224.118942,511.862549 223.467148,511.205017 222.742996,511.112213 
	C200.023148,508.201324 178.222809,502.077667 157.083145,493.234772 
	C131.055786,482.347321 107.421791,467.611084 86.528923,448.829224 
	C59.779182,424.782288 38.507397,396.533173 23.668770,363.515503 
	C13.438132,340.751251 6.473745,317.155701 2.935052,292.489410 
	C2.758540,291.259064 1.666007,290.160126 1.000000,289.000000 
	C1.000000,267.979095 1.000000,246.958206 1.371581,225.370850 
	C2.137452,224.118896 2.795052,223.467148 2.887823,222.743027 
	C5.798635,200.023163 11.922319,178.222824 20.765177,157.083145 
	C31.652594,131.055771 46.388794,107.421761 65.170715,86.528900 
	C89.217690,59.779217 117.466820,38.507401 150.484451,23.668764 
	C173.248734,13.438142 196.844284,6.473747 221.510574,2.935049 
	C222.740921,2.758540 223.839874,1.666008 225.000000,1.000000 
M362.258728,150.021378 
	C367.856232,148.605301 372.473328,145.652405 374.971344,140.395569 
	C378.536011,132.894043 381.872437,125.265953 384.895966,117.531502 
	C387.057495,112.002205 384.691528,108.071709 378.907928,106.674484 
	C377.149597,106.249702 375.289185,106.099075 373.473206,106.082916 
	C330.481140,105.700340 287.489258,105.182533 244.496246,105.052444 
	C208.339096,104.943031 175.980759,116.246872 148.536835,139.865021 
	C141.263123,146.124741 135.576950,154.491058 130.172562,162.566513 
	C126.721794,167.722778 129.289886,171.168442 135.491577,171.179367 
	C138.466751,171.184601 141.555847,171.057220 144.400146,170.281479 
	C162.041794,165.469971 179.516342,159.997559 197.270645,155.663315 
	C210.404572,152.457047 223.878998,150.645584 238.208694,148.028839 
	C235.076965,155.335175 232.322586,161.032059 230.149796,166.942734 
	C207.475174,228.624741 192.798981,292.207550 186.490875,357.584015 
	C185.130676,371.681091 186.874603,386.144562 187.961044,400.380280 
	C188.444794,406.718750 192.280304,409.984528 198.389130,409.581268 
	C208.623383,408.905701 219.031418,408.114075 228.916199,405.600891 
	C240.810532,402.576721 244.894287,395.898895 245.222427,383.659851 
	C246.300400,343.455261 251.148300,303.632904 257.621552,263.993927 
	C262.314911,235.254135 267.410248,206.580170 272.183075,177.853043 
	C273.784119,168.216599 274.943176,158.506729 276.337158,148.596588 
	C294.761749,149.245224 312.887390,150.044632 331.021851,150.458481 
	C341.151154,150.689651 351.295044,150.280533 362.258728,150.021378 
z"/>
<path fill="#000000" opacity="1.000000" stroke="none" 
	d="
M224.531342,1.000000 
	C223.839874,1.666008 222.740921,2.758540 221.510574,2.935049 
	C196.844284,6.473747 173.248734,13.438142 150.484451,23.668764 
	C117.466820,38.507401 89.217690,59.779217 65.170715,86.528900 
	C46.388794,107.421761 31.652594,131.055771 20.765177,157.083145 
	C11.922319,178.222824 5.798635,200.023163 2.887823,222.743027 
	C2.795052,223.467148 2.137452,224.118896 1.371581,224.902191 
	C1.000000,150.406296 1.000000,75.812576 1.000000,1.000000 
	C75.354088,1.000000 149.708389,1.000000 224.531342,1.000000 
z"/>
<path fill="#000000" opacity="1.000000" stroke="none" 
	d="
M513.000000,224.531342 
	C512.333984,223.839874 511.241455,222.740936 511.064941,221.510605 
	C507.526184,196.844330 500.561890,173.248734 490.331238,150.484451 
	C475.492584,117.466843 454.220734,89.217735 427.471069,65.170746 
	C406.578247,46.388783 382.944214,31.652607 356.916840,20.765171 
	C335.777161,11.922305 313.976837,5.798637 291.256958,2.887823 
	C290.532867,2.795050 289.881073,2.137463 289.097778,1.371590 
	C363.593719,1.000000 438.187408,1.000000 513.000000,1.000000 
	C513.000000,75.354088 513.000000,149.708389 513.000000,224.531342 
z"/>
<path fill="#000000" opacity="1.000000" stroke="none" 
	d="
M1.000000,289.468658 
	C1.666007,290.160126 2.758540,291.259064 2.935052,292.489410 
	C6.473745,317.155701 13.438132,340.751251 23.668770,363.515503 
	C38.507397,396.533173 59.779182,424.782288 86.528923,448.829224 
	C107.421791,467.611084 131.055786,482.347321 157.083145,493.234772 
	C178.222809,502.077667 200.023148,508.201324 222.742996,511.112213 
	C223.467148,511.205017 224.118942,511.862549 224.902222,512.628418 
	C150.406296,513.000000 75.812599,513.000000 1.000000,513.000000 
	C1.000000,438.645905 1.000000,364.291626 1.000000,289.468658 
z"/>
<path fill="#000000" opacity="1.000000" stroke="none" 
	d="
M289.468658,513.000000 
	C290.160126,512.333984 291.259064,511.241516 292.489410,511.065033 
	C317.155670,507.526276 340.751251,500.561890 363.515503,490.331268 
	C396.533051,475.492523 424.782410,454.220978 448.829285,427.471130 
	C467.611084,406.578156 482.347412,382.944214 493.234833,356.916840 
	C502.077637,335.777191 508.201416,313.976868 511.112183,291.256989 
	C511.204956,290.532867 511.862518,289.881073 512.628418,289.097778 
	C513.000000,363.593719 513.000000,438.187408 513.000000,513.000000 
	C438.645905,513.000000 364.291626,513.000000 289.468658,513.000000 
z"/>
<path fill="#A9FEDC" opacity="1.000000" stroke="none" 
	d="
M361.845551,150.090668 
	C351.295044,150.280533 341.151154,150.689651 331.021851,150.458481 
	C312.887390,150.044632 294.761749,149.245224 276.337158,148.596588 
	C274.943176,158.506729 273.784119,168.216599 272.183075,177.853043 
	C267.410248,206.580170 262.314911,235.254135 257.621552,263.993927 
	C251.148300,303.632904 246.300400,343.455261 245.222427,383.659851 
	C244.894287,395.898895 240.810532,402.576721 228.916199,405.600891 
	C219.031418,408.114075 208.623383,408.905701 198.389130,409.581268 
	C192.280304,409.984528 188.444794,406.718750 187.961044,400.380280 
	C186.874603,386.144562 185.130676,371.681091 186.490875,357.584015 
	C192.798981,292.207550 207.475174,228.624741 230.149796,166.942734 
	C232.322586,161.032059 235.076965,155.335175 238.208694,148.028839 
	C223.878998,150.645584 210.404572,152.457047 197.270645,155.663315 
	C179.516342,159.997559 162.041794,165.469971 144.400146,170.281479 
	C141.555847,171.057220 138.466751,171.184601 135.491577,171.179367 
	C129.289886,171.168442 126.721794,167.722778 130.172562,162.566513 
	C135.576950,154.491058 141.263123,146.124741 148.536835,139.865021 
	C175.980759,116.246872 208.339096,104.943031 244.496246,105.052444 
	C287.489258,105.182533 330.481140,105.700340 373.473206,106.082916 
	C375.289185,106.099075 377.149597,106.249702 378.907928,106.674484 
	C384.691528,108.071709 387.057495,112.002205 384.895966,117.531502 
	C381.872437,125.265953 378.536011,132.894043 374.971344,140.395569 
	C372.473328,145.652405 367.856232,148.605301 361.845551,150.090668 
z"/>
</svg>